<svg width="31" height="31" viewBox="0 0 31 31" fill="none" xmlns="http://www.w3.org/2000/svg">
<path d="M15.5 2.58334C8.37001 2.58334 2.58334 8.37 2.58334 15.5C2.58334 22.63 8.37001 28.4167 15.5 28.4167H21.9583V25.8333H15.5C9.89418 25.8333 5.16668 21.1058 5.16668 15.5C5.16668 9.89417 9.89418 5.16667 15.5 5.16667C21.1058 5.16667 25.8333 9.89417 25.8333 15.5V17.3471C25.8333 18.3675 24.9163 19.375 23.8958 19.375C22.8754 19.375 21.9583 18.3675 21.9583 17.3471V15.5C21.9583 11.935 19.065 9.04167 15.5 9.04167C11.935 9.04167 9.04168 11.935 9.04168 15.5C9.04168 19.065 11.935 21.9583 15.5 21.9583C17.2825 21.9583 18.91 21.235 20.0725 20.0596C20.9121 21.2092 22.3588 21.9583 23.8958 21.9583C26.4404 21.9583 28.4167 19.8917 28.4167 17.3471V15.5C28.4167 8.37 22.63 2.58334 15.5 2.58334ZM15.5 19.375C13.3558 19.375 11.625 17.6442 11.625 15.5C11.625 13.3558 13.3558 11.625 15.5 11.625C17.6442 11.625 19.375 13.3558 19.375 15.5C19.375 17.6442 17.6442 19.375 15.5 19.375Z" fill="black" fill-opacity="0.56"/>
</svg>
