<svg width="30" height="30" viewBox="0 0 30 30" fill="none" xmlns="http://www.w3.org/2000/svg">
<path d="M15 5.625C8.75 5.625 3.4125 9.5125 1.25 15C3.4125 20.4875 8.75 24.375 15 24.375C21.25 24.375 26.5875 20.4875 28.75 15C26.5875 9.5125 21.25 5.625 15 5.625ZM15 21.25C11.55 21.25 8.75 18.45 8.75 15C8.75 11.55 11.55 8.75 15 8.75C18.45 8.75 21.25 11.55 21.25 15C21.25 18.45 18.45 21.25 15 21.25ZM15 11.25C12.925 11.25 11.25 12.925 11.25 15C11.25 17.075 12.925 18.75 15 18.75C17.075 18.75 18.75 17.075 18.75 15C18.75 12.925 17.075 11.25 15 11.25Z" fill="black" fill-opacity="0.56"/>
</svg>
