<svg width="25" height="24" viewBox="0 0 25 24" fill="none" xmlns="http://www.w3.org/2000/svg">
<g clip-path="url(#clip0)">
<path d="M5.66377 9.765C6.14579 8.34945 7.07605 7.11781 8.32184 6.2458C9.56763 5.37378 11.0653 4.90594 12.6012 4.909C14.3423 4.909 15.9164 5.509 17.1527 6.491L20.7502 3C18.5579 1.145 15.7485 0 12.6012 0C7.72832 0 3.5333 2.698 1.51614 6.65L5.66377 9.765Z" fill="#EA4335"/>
<path d="M16.7633 18.013C15.6404 18.716 14.2145 19.091 12.6012 19.091C11.0714 19.0941 9.57941 18.6299 8.3364 17.7644C7.09338 16.8988 6.16235 15.6756 5.67512 14.268L1.51306 17.335C2.53425 19.3413 4.11462 21.0294 6.07466 22.2076C8.03469 23.3857 10.2958 24.0067 12.6012 24C15.6228 24 18.5095 22.957 20.6719 21L16.7643 18.013H16.7633Z" fill="#34A853"/>
<path d="M20.6719 21C22.9332 18.952 24.4013 15.904 24.4013 12C24.4013 11.29 24.289 10.527 24.1211 9.81799H12.6012V14.455H19.2317C18.9051 16.014 18.0263 17.221 16.7643 18.013L20.6719 21Z" fill="#4A90E2"/>
<path d="M5.6751 14.268C5.42307 13.5369 5.29503 12.7709 5.29598 12C5.29598 11.218 5.42476 10.467 5.66377 9.76499L1.51614 6.64999C0.667633 8.31268 0.230232 10.1445 0.238676 12C0.238676 13.92 0.69712 15.73 1.51305 17.335L5.6751 14.268Z" fill="#FBBC05"/>
</g>
<defs>
<clipPath id="clip0">
<rect width="24.7251" height="24" fill="white" transform="translate(0.238678)"/>
</clipPath>
</defs>
</svg>
