<svg width="223" height="43" viewBox="0 0 223 43" fill="none" xmlns="http://www.w3.org/2000/svg">
<path d="M10.009 20.6228C10.4471 20.6228 10.8515 20.5365 11.2222 20.3639C11.6013 20.1915 11.9256 19.9068 12.1952 19.5099C12.4733 19.1045 12.6881 18.5652 12.8398 17.8923C12.9998 17.2194 13.0799 16.3826 13.0799 15.3819C13.0799 13.9067 12.8145 12.8326 12.2837 12.1597C11.7529 11.4782 10.982 11.1374 9.97104 11.1374C9.5245 11.1374 9.20435 11.159 9.01059 11.2021C8.82524 11.2366 8.6483 11.2668 8.47981 11.2927V20.5192C8.71571 20.5451 8.9474 20.5711 9.17487 20.5969C9.40235 20.6141 9.68037 20.6228 10.009 20.6228ZM12.1573 27.7918V29.6552H1.12476V27.7918L3.13412 27.4036C3.2942 27.3691 3.42479 27.2957 3.52589 27.1836C3.62699 27.0627 3.67755 26.9204 3.67755 26.7565V12.4444C3.67755 12.2978 3.63121 12.164 3.53853 12.0433C3.44586 11.9225 3.32369 11.8448 3.17205 11.8103L1.12476 11.3962V9.44223H6.16714C6.72319 9.44223 7.34243 9.41635 8.02486 9.36459C8.70728 9.31283 9.52872 9.29125 10.4892 9.29988C11.9299 9.30851 13.1304 9.44654 14.0909 9.71397C15.0514 9.97279 15.8138 10.3567 16.3782 10.8657C16.9512 11.366 17.3556 11.9872 17.5915 12.7291C17.8274 13.4624 17.9453 14.3035 17.9453 15.2524C17.9453 17.5041 17.2798 19.2726 15.9486 20.558C14.6259 21.8434 12.6881 22.4862 10.1353 22.4862C9.84887 22.4862 9.56664 22.4819 9.28862 22.4733C9.01059 22.456 8.74098 22.4388 8.47981 22.4216V26.7565C8.47981 26.9204 8.53036 27.0627 8.63146 27.1836C8.74098 27.3043 8.87999 27.3734 9.0485 27.3906L12.1573 27.7918ZM41.2782 9.44223V11.3962L39.2941 11.7845C39.1087 11.8276 38.9655 11.9182 38.8644 12.0562C38.7632 12.1856 38.7127 12.3452 38.7127 12.535V26.6919C38.7127 26.8903 38.7632 27.0498 38.8644 27.1707C38.9655 27.2914 39.1129 27.3734 39.3067 27.4165L41.2782 27.7918V29.6552H31.939V27.7918L33.3417 27.4165C33.5271 27.3648 33.6703 27.2828 33.7715 27.1707C33.8726 27.0498 33.9231 26.8903 33.9231 26.6919V20.5711H27.0104V26.6919C27.0104 26.8903 27.0567 27.0498 27.1494 27.1707C27.2505 27.2914 27.3937 27.3734 27.579 27.4165L29.1587 27.7918V29.6552H19.6553V27.7918L21.6268 27.4165C21.8206 27.3734 21.9638 27.2914 22.0565 27.1707C22.1575 27.0498 22.2081 26.8903 22.2081 26.6919V12.535C22.2081 12.3193 22.1575 12.1511 22.0565 12.0303C21.9638 11.9095 21.8248 11.8276 21.6394 11.7845L19.6553 11.3962V9.44223H29.1587V11.3962L27.5664 11.7845C27.3811 11.8276 27.2421 11.9095 27.1494 12.0303C27.0567 12.1511 27.0104 12.3193 27.0104 12.535V18.203H33.9231V12.535C33.9231 12.3452 33.8726 12.1856 33.7715 12.0562C33.6788 11.9268 33.5398 11.8362 33.3544 11.7845L31.9264 11.3962V9.44223H41.2782ZM51.8868 30.0951C50.404 30.0951 49.1191 29.8579 48.0323 29.3834C46.954 28.9089 46.0652 28.236 45.3657 27.3648C44.6665 26.4934 44.1484 25.428 43.8114 24.1684C43.4744 22.9089 43.3059 21.4984 43.3059 19.9369C43.3059 18.2202 43.5038 16.6846 43.8999 15.3301C44.2958 13.9757 44.8814 12.8326 45.6565 11.9009C46.4315 10.9692 47.3962 10.2575 48.5504 9.76574C49.7131 9.27401 51.0443 9.02814 52.5439 9.02814C54.0267 9.02814 55.3115 9.26538 56.3985 9.73986C57.4852 10.2143 58.3782 10.8915 59.0775 11.7715C59.7768 12.6428 60.295 13.7083 60.632 14.9677C60.9689 16.2273 61.1375 17.6379 61.1375 19.1994C61.1375 20.9075 60.9395 22.4431 60.5435 23.8062C60.1475 25.1605 59.562 26.3036 58.7869 27.2353C58.0117 28.1583 57.0428 28.8658 55.8802 29.3576C54.726 29.8493 53.3949 30.0951 51.8868 30.0951ZM52.2786 11.0468C51.0485 11.0468 50.1217 11.7197 49.4983 13.0656C48.8748 14.4114 48.563 16.6198 48.563 19.6911C48.563 22.676 48.858 24.8241 49.4478 26.1354C50.0459 27.438 50.9474 28.0894 52.1522 28.0894C53.3654 28.0894 54.2879 27.4079 54.9199 26.0448C55.5516 24.6817 55.8676 22.4603 55.8676 19.3804C55.8676 16.3956 55.5686 14.2604 54.9704 12.975C54.3806 11.6896 53.4834 11.0468 52.2786 11.0468ZM78.2839 29.6552H66.3667V27.8047L69.3239 27.313C69.5177 27.2785 69.6651 27.2051 69.7663 27.093C69.8758 26.9721 69.9305 26.8126 69.9305 26.6142V11.448H68.8563C68.5194 11.448 68.195 11.4696 67.8833 11.5127C67.5715 11.5558 67.3188 11.6162 67.125 11.6939C66.9481 11.7629 66.8133 11.8535 66.7206 11.9656C66.6279 12.0778 66.5647 12.2158 66.5311 12.3797L65.4569 16.8442H63.1189C62.9757 15.5156 62.8872 14.282 62.8534 13.1432C62.8282 12.0044 62.883 10.7708 63.0178 9.44223H81.6202C81.755 10.7708 81.8055 12.0131 81.7719 13.1691C81.7466 14.3251 81.6665 15.5502 81.5317 16.8442H79.1938L78.0691 12.3668C78.027 12.2029 77.9595 12.0691 77.8668 11.9656C77.7742 11.8535 77.6437 11.7629 77.4751 11.6939C77.2814 11.6076 77.0286 11.5472 76.7169 11.5127C76.4052 11.4696 76.0808 11.448 75.7439 11.448H74.7201V26.6142C74.7201 26.8126 74.7708 26.9721 74.8718 27.093C74.9813 27.2051 75.1329 27.2785 75.3268 27.313L78.2839 27.8047V29.6552Z" fill="black"/>
<path d="M105.708 25.5035C108.267 25.5035 110.342 23.3791 110.342 20.7586C110.342 18.1381 108.267 16.0138 105.708 16.0138C103.149 16.0138 101.074 18.1381 101.074 20.7586C101.074 23.3791 103.149 25.5035 105.708 25.5035Z" fill="#EB1461"/>
<path d="M111.5 4.93758C115.236 4.93758 118.262 8.03655 118.262 11.8621H120.188C120.188 6.95414 116.293 2.96552 111.5 2.96552V4.93758ZM111.5 8.89655C113.107 8.89655 114.396 10.2162 114.396 11.8621H116.322C116.322 9.13379 114.164 6.92448 111.5 6.92448V8.89655Z" fill="#EB1461"/>
<path d="M112.948 13.3448C112.948 11.699 111.659 10.3793 110.052 10.3793V5.93103H101.364L98.7137 8.89655H94.1234C92.5305 8.89655 91.2273 10.231 91.2273 11.8621V29.6552C91.2273 31.2862 92.5305 32.6207 94.1234 32.6207H117.292C118.885 32.6207 120.188 31.2862 120.188 29.6552V13.3448H112.948ZM105.708 28.1724C101.711 28.1724 98.4675 24.851 98.4675 20.7586C98.4675 16.6662 101.711 13.3448 105.708 13.3448C109.704 13.3448 112.948 16.6662 112.948 20.7586C112.948 24.851 109.704 28.1724 105.708 28.1724Z" fill="#EB1461"/>
<path d="M144.509 23.9354C144.509 24.6602 144.374 25.3934 144.105 26.1354C143.835 26.8686 143.401 27.5286 142.803 28.1153C142.213 28.6933 141.434 29.1678 140.465 29.5388C139.505 29.901 138.342 30.0822 136.977 30.0822C135.671 30.0822 134.441 29.927 133.287 29.6163C132.133 29.3058 131.139 28.9477 130.305 28.5424C130.279 28.0765 130.271 27.5889 130.279 27.0801C130.296 26.5624 130.317 26.0577 130.343 25.566C130.376 25.0656 130.418 24.5868 130.469 24.1297C130.528 23.6638 130.591 23.241 130.658 22.8615H133.376L133.868 26.2129C133.902 26.4115 133.957 26.5925 134.033 26.7565C134.109 26.9204 134.231 27.0715 134.399 27.2094C134.652 27.4423 135.019 27.6666 135.499 27.8824C135.979 28.098 136.51 28.2058 137.091 28.2058C137.925 28.2058 138.574 27.9685 139.037 27.494C139.509 27.0196 139.745 26.3984 139.745 25.6307C139.745 25.0872 139.631 24.6041 139.404 24.1814C139.185 23.7587 138.881 23.3748 138.494 23.0296C138.115 22.6846 137.664 22.361 137.142 22.0591C136.628 21.7485 136.084 21.4423 135.511 21.1404C134.854 20.7866 134.218 20.4287 133.603 20.0663C132.988 19.6953 132.449 19.2812 131.985 18.8241C131.522 18.3582 131.147 17.819 130.861 17.2065C130.583 16.5854 130.444 15.852 130.444 15.0065C130.444 14.1612 130.591 13.3761 130.886 12.6514C131.189 11.9181 131.636 11.2884 132.226 10.7621C132.824 10.2273 133.574 9.80884 134.475 9.50691C135.376 9.20496 136.425 9.05399 137.622 9.05399C138.624 9.05399 139.64 9.1532 140.667 9.35162C141.695 9.55004 142.588 9.80884 143.347 10.1281C143.414 10.9821 143.418 11.8793 143.359 12.8197C143.309 13.7514 143.216 14.6313 143.081 15.4595H140.44L139.909 12.522C139.859 12.2718 139.791 12.0648 139.707 11.9009C139.631 11.737 139.517 11.5989 139.366 11.4868C139.138 11.3143 138.839 11.1762 138.469 11.0727C138.106 10.9692 137.744 10.9174 137.382 10.9174C136.623 10.9174 136.029 11.1374 135.6 11.5774C135.179 12.0087 134.968 12.5781 134.968 13.2855C134.968 13.7773 135.065 14.2086 135.259 14.5796C135.452 14.9505 135.726 15.2912 136.08 15.6019C136.442 15.9124 136.885 16.2144 137.407 16.5077C137.929 16.801 138.515 17.1202 139.164 17.4653C139.888 17.8448 140.575 18.2461 141.223 18.6687C141.872 19.0914 142.437 19.5573 142.917 20.0663C143.406 20.5753 143.793 21.149 144.08 21.7874C144.366 22.4171 144.509 23.1333 144.509 23.9354ZM156.607 9.4422V11.3962L154.636 11.7844C154.442 11.8276 154.294 11.9138 154.193 12.0432C154.1 12.164 154.054 12.3236 154.054 12.522V26.6788C154.054 26.8772 154.1 27.0412 154.193 27.1707C154.294 27.2914 154.442 27.369 154.636 27.4036L156.607 27.7918V29.6552H146.699V27.7918L148.67 27.4165C148.864 27.3819 149.007 27.3043 149.1 27.1836C149.201 27.0541 149.252 26.8903 149.252 26.6919V12.522C149.252 12.3236 149.201 12.164 149.1 12.0432C149.007 11.9138 148.864 11.8276 148.67 11.7844L146.699 11.3962V9.4422H156.607ZM174.628 29.8622L172.15 27.973C171.594 28.5682 170.866 29.0686 169.964 29.474C169.072 29.8709 168.013 30.0693 166.792 30.0693C165.478 30.0693 164.31 29.8364 163.291 29.3705C162.28 28.896 161.43 28.2188 160.738 27.3388C160.056 26.4589 159.538 25.3805 159.184 24.1037C158.831 22.8183 158.653 21.3689 158.653 19.7557C158.653 16.1152 159.53 13.4235 161.283 11.6809C163.035 9.92963 165.504 9.05399 168.688 9.05399C169.842 9.05399 170.983 9.17046 172.113 9.40338C173.242 9.62768 174.231 9.91237 175.083 10.2575C175.142 11.1029 175.146 11.9828 175.096 12.8973C175.045 13.8031 174.952 14.709 174.818 15.6148H171.91L171.215 12.6514C171.148 12.384 171.069 12.1813 170.976 12.0432C170.883 11.9052 170.756 11.7715 170.596 11.6421C170.376 11.4695 170.095 11.3229 169.749 11.2021C169.403 11.0727 168.999 11.008 168.536 11.008C167.095 11.008 166.013 11.7111 165.288 13.1173C164.573 14.5149 164.213 16.7621 164.213 19.8593C164.213 22.3352 164.5 24.2375 165.074 25.566C165.647 26.886 166.72 27.5459 168.295 27.5459C168.836 27.5459 169.328 27.4768 169.774 27.3388C170.23 27.1922 170.634 26.9938 170.987 26.7436V21.4638L168.587 21.1922V19.1863H176.801V21.1922L175.513 21.4121V29.3445L174.628 29.8622ZM200.36 9.4422V11.3962L198.376 11.7844C198.191 11.8276 198.047 11.9181 197.946 12.0562C197.846 12.1856 197.795 12.3452 197.795 12.535V26.6919C197.795 26.8903 197.846 27.0498 197.946 27.1707C198.047 27.2914 198.195 27.3733 198.389 27.4165L200.36 27.7918V29.6552H191.021V27.7918L192.424 27.4165C192.61 27.3647 192.753 27.2828 192.853 27.1707C192.954 27.0498 193.005 26.8903 193.005 26.6919V20.571H186.092V26.6919C186.092 26.8903 186.138 27.0498 186.231 27.1707C186.332 27.2914 186.476 27.3733 186.661 27.4165L188.241 27.7918V29.6552H178.737V27.7918L180.708 27.4165C180.902 27.3733 181.046 27.2914 181.138 27.1707C181.24 27.0498 181.29 26.8903 181.29 26.6919V12.535C181.29 12.3193 181.24 12.1511 181.138 12.0303C181.046 11.9095 180.907 11.8276 180.721 11.7844L178.737 11.3962V9.4422H188.241V11.3962L186.648 11.7844C186.463 11.8276 186.324 11.9095 186.231 12.0303C186.138 12.1511 186.092 12.3193 186.092 12.535V18.2029H193.005V12.535C193.005 12.3452 192.954 12.1856 192.853 12.0562C192.76 11.9268 192.621 11.8362 192.436 11.7844L191.008 11.3962V9.4422H200.36ZM217.648 29.6552H205.731V27.8047L208.687 27.313C208.881 27.2785 209.029 27.2051 209.131 27.093C209.239 26.9721 209.294 26.8126 209.294 26.6142V11.448H208.22C207.882 11.448 207.558 11.4695 207.247 11.5127C206.935 11.5558 206.682 11.6162 206.489 11.6938C206.311 11.7629 206.177 11.8534 206.084 11.9656C205.991 12.0777 205.929 12.2158 205.894 12.3797L204.821 16.8441H202.483C202.339 15.5156 202.251 14.2819 202.218 13.1432C202.191 12.0044 202.247 10.7708 202.381 9.4422H220.984C221.119 10.7708 221.17 12.013 221.135 13.169C221.11 14.3251 221.031 15.5501 220.896 16.8441H218.557L217.432 12.3667C217.39 12.2028 217.324 12.0691 217.231 11.9656C217.138 11.8534 217.008 11.7629 216.839 11.6938C216.644 11.6076 216.393 11.5472 216.081 11.5127C215.768 11.4695 215.444 11.448 215.108 11.448H214.084V26.6142C214.084 26.8126 214.135 26.9721 214.235 27.093C214.345 27.2051 214.497 27.2785 214.691 27.313L217.648 27.8047V29.6552Z" fill="black"/>
</svg>
