<svg width="20" height="25" viewBox="0 0 20 25" fill="none" xmlns="http://www.w3.org/2000/svg">
<path d="M17.5 8.33333H16.25V5.95238C16.25 2.66667 13.45 0 10 0C6.55 0 3.75 2.66667 3.75 5.95238V8.33333H2.5C1.125 8.33333 0 9.40476 0 10.7143V22.619C0 23.9286 1.125 25 2.5 25H17.5C18.875 25 20 23.9286 20 22.619V10.7143C20 9.40476 18.875 8.33333 17.5 8.33333ZM10 19.0476C8.625 19.0476 7.5 17.9762 7.5 16.6667C7.5 15.3571 8.625 14.2857 10 14.2857C11.375 14.2857 12.5 15.3571 12.5 16.6667C12.5 17.9762 11.375 19.0476 10 19.0476ZM13.875 8.33333H6.125V5.95238C6.125 3.91667 7.8625 2.2619 10 2.2619C12.1375 2.2619 13.875 3.91667 13.875 5.95238V8.33333Z" fill="black" fill-opacity="0.56"/>
</svg>
